<?xml version="1.0" encoding="UTF-8" standalone="no"?>
<svg
   xmlns:dc="http://purl.org/dc/elements/1.1/"
   xmlns:cc="http://creativecommons.org/ns#"
   xmlns:rdf="http://www.w3.org/1999/02/22-rdf-syntax-ns#"
   xmlns:svg="http://www.w3.org/2000/svg"
   xmlns="http://www.w3.org/2000/svg"
   xmlns:sodipodi="http://sodipodi.sourceforge.net/DTD/sodipodi-0.dtd"
   xmlns:inkscape="http://www.inkscape.org/namespaces/inkscape"
   inkscape:version="1.0 (4035a4fb49, 2020-05-01)"
   sodipodi:docname="facebook.svg"
   id="svg845"
   version="1.1"
   viewBox="0 0 44 44"
   height="44"
   width="44">
  <metadata
     id="metadata851">
    <rdf:RDF>
      <cc:Work
         rdf:about="">
        <dc:format>image/svg+xml</dc:format>
        <dc:type
           rdf:resource="http://purl.org/dc/dcmitype/StillImage" />
        <dc:title></dc:title>
      </cc:Work>
    </rdf:RDF>
  </metadata>
  <defs
     id="defs849" />
  <sodipodi:namedview
     inkscape:pagecheckerboard="false"
     fit-margin-bottom="0"
     fit-margin-right="0"
     fit-margin-left="0"
     fit-margin-top="0"
     inkscape:current-layer="layer6"
     inkscape:window-maximized="1"
     inkscape:window-y="-8"
     inkscape:window-x="-8"
     inkscape:cy="60.928876"
     inkscape:cx="32.353498"
     inkscape:zoom="4.9350161"
     showgrid="false"
     id="namedview847"
     inkscape:window-height="837"
     inkscape:window-width="1600"
     inkscape:pageshadow="2"
     inkscape:pageopacity="1"
     guidetolerance="10"
     gridtolerance="10"
     objecttolerance="10"
     borderopacity="1"
     bordercolor="#666666"
     pagecolor="#ffffff" />
  <circle
     r="22"
     cy="75"
     cx="-23.447762"
     id="path899"
     style="fill:none;fill-opacity:1;stroke-width:0.828082" />
  <g
     transform="translate(9,9)"
     inkscape:label="fb"
     id="layer1"
     inkscape:groupmode="layer">
    <g
       inkscape:label="bg"
       id="layer5"
       inkscape:groupmode="layer" />
  </g>
  <g
     transform="translate(9,9)"
     inkscape:label="cutout 2"
     id="layer3"
     inkscape:groupmode="layer" />
  <g
     transform="translate(9,9)"
     inkscape:label="cutout"
     id="layer2"
     inkscape:groupmode="layer">
    <g
       inkscape:label="bg 1"
       id="layer6"
       inkscape:groupmode="layer">
      <g
         transform="matrix(0.70967742,0,0,0.70967742,-2.6129032,-2.6129032)"
         id="g1131">
        <g
           id="g1116"
           transform="translate(-53.036133,-51.315429)">
          <path
             transform="translate(-9,-9)"
             d="M 97.234375,103.31445 H 70.837891 v 5.57422 h 26.396484 z"
             style="fill:#3c5a99;fill-opacity:1;stroke-width:0.539227"
             id="path1073-9" />
          <path
             transform="translate(-9,-9)"
             d="m 70.837891,55.742188 v 5.572265 h 26.396484 v -5.572265 z"
             style="fill:#3c5a99;fill-opacity:1;stroke-width:0.539227"
             id="path1109" />
        </g>
        <g
           id="g1091"
           transform="translate(0,-23.56836)">
          <g
             transform="translate(-28.157227,-38.735352)"
             id="g1080">
            <path
               id="rect979-8"
               style="fill:#3c5a99;fill-opacity:1;stroke-width:0.525028"
               d="m 80.15625,109.13672 h 5.269531 V 77.470703 H 80.15625 Z"
               transform="translate(-9,-9)" />
            <path
               id="path1075"
               style="fill:#3c5a99;fill-opacity:1;stroke-width:0.525028"
               d="M 38.15625,77.470703 H 32.888672 V 109.13672 H 38.15625 Z"
               transform="translate(-9,-9)" />
          </g>
          <g
             transform="translate(0,23.56836)"
             id="g963">
            <path
               d="M 41.570833,0 H 2.429167 C 1.087167,0 0,1.0871667 0,2.4291667 V 41.572667 C 0,42.912833 1.087167,44 2.429167,44 H 23.503333 V 26.961 h -5.734666 v -6.640333 h 5.734666 v -4.896834 c 0,-5.6833328 3.4705,-8.7779998 8.5415,-8.7779998 2.429167,0 4.5155,0.1815 5.124167,0.262167 V 12.848 l -3.516333,0.0018 c -2.757334,0 -3.290834,1.310834 -3.290834,3.232167 v 4.2405 H 36.938 L 36.081833,26.9628 h -5.72 V 44 H 41.5745 C 42.912833,44 44,42.912833 44,41.570833 V 2.4291667 C 44,1.0871667 42.912833,0 41.570833,0 Z"
               id="path843"
               style="fill:#3c5a99;fill-opacity:1;stroke-width:1.83333" />
            <path
               id="path957"
               style="fill:#3c5a99;fill-opacity:1;stroke-width:4.39666"
               d="M 21.998047,-9 A 31,31 0 0 0 -9,22 31,31 0 0 0 22,53 31,31 0 0 0 53,22 31,31 0 0 0 22,-9 31,31 0 0 1 21.998,-9 Z m -0.166016,6 A 25,25 0 0 1 22,-3 a 25,25 0 0 1 0.419922,0.00391 25,25 0 0 1 0.419922,0.00977 25,25 0 0 1 0.421875,0.017578 25,25 0 0 1 0.417969,0.025391 25,25 0 0 1 0.419921,0.03125 25,25 0 0 1 0.417969,0.039062 25,25 0 0 1 0.417969,0.046875 25,25 0 0 1 0.417969,0.052734 25,25 0 0 1 0.416015,0.058594 25,25 0 0 1 0.416016,0.068359 25,25 0 0 1 0.412109,0.072266 25,25 0 0 1 0.414063,0.082031 25,25 0 0 1 0.410156,0.087891 25,25 0 0 1 0.410156,0.09375 25,25 0 0 1 0.408203,0.1015625 25,25 0 0 1 0.40625,0.109375 25,25 0 0 1 0.404297,0.1152344 25,25 0 0 1 0.402344,0.1210938 25,25 0 0 1 0.400391,0.1289062 25,25 0 0 1 0.398437,0.1347656 25,25 0 0 1 0.394531,0.1425782 25,25 0 0 1 0.394532,0.1484374 25,25 0 0 1 0.390625,0.15625 25,25 0 0 1 0.386718,0.16210942 25,25 0 0 1 0.386719,0.16796876 25,25 0 0 1 0.38086,0.17382812 25,25 0 0 1 0.380859,0.18164062 25,25 0 0 1 0.375,0.1875 25,25 0 0 1 0.373047,0.19335938 25,25 0 0 1 0.371094,0.20117188 25,25 0 0 1 0.365234,0.20703124 25,25 0 0 1 0.363281,0.2109375 25,25 0 0 1 0.359375,0.21875 25,25 0 0 1 0.355469,0.22460938 25,25 0 0 1 0.351562,0.2304687 25,25 0 0 1 0.347657,0.2363282 25,25 0 0 1 0.34375,0.2421875 25,25 0 0 1 0.339843,0.2480469 25,25 0 0 1 0.333985,0.2539062 25,25 0 0 1 0.332031,0.2597656 25,25 0 0 1 0.326172,0.2636719 25,25 0 0 1 0.322265,0.2714844 25,25 0 0 1 0.31836,0.2753906 25,25 0 0 1 0.3125,0.28125 25,25 0 0 1 0.308594,0.2851563 25,25 0 0 1 0.302734,0.2910156 25,25 0 0 1 0.298828,0.296875 25,25 0 0 1 0.292969,0.3007812 25,25 0 0 1 0.287109,0.3066406 25,25 0 0 1 0.283203,0.3105469 25,25 0 0 1 0.277344,0.3164063 25,25 0 0 1 0.273438,0.3203125 25,25 0 0 1 0.265625,0.3242187 25,25 0 0 1 0.261718,0.3300782 25,25 0 0 1 0.25586,0.3320312 25,25 0 0 1 0.25,0.3378906 25,25 0 0 1 0.246094,0.34375 25,25 0 0 1 0.238281,0.3457032 25,25 0 0 1 0.232422,0.3496093 25,25 0 0 1 0.226562,0.3535157 25,25 0 0 1 0.220703,0.3574218 25,25 0 0 1 0.214844,0.3613282 25,25 0 0 1 0.208984,0.3652343 25,25 0 0 1 0.203125,0.369141 25,25 0 0 1 0.197266,0.371093 25,25 0 0 1 0.189453,0.375 25,25 0 0 1 0.183594,0.378907 25,25 0 0 1 0.177734,0.380859 25,25 0 0 1 0.169922,0.384766 25,25 0 0 1 0.166016,0.386718 25,25 0 0 1 0.15625,0.388672 25,25 0 0 1 0.152344,0.392578 25,25 0 0 1 0.144531,0.394532 25,25 0 0 1 0.138672,0.396484 25,25 0 0 1 0.130859,0.400391 25,25 0 0 1 0.125,0.402343 25,25 0 0 1 0.117188,0.402344 25,25 0 0 1 0.111328,0.40625 25,25 0 0 1 0.103515,0.40625 25,25 0 0 1 0.09766,0.410156 25,25 0 0 1 0.0918,0.410157 25,25 0 0 1 0.08203,0.412109 25,25 0 0 1 0.07813,0.414063 25,25 0 0 1 0.06836,0.414062 25,25 0 0 1 0.0625,0.416016 25,25 0 0 1 0.05664,0.416015 25,25 0 0 1 0.04883,0.417969 25,25 0 0 1 0.04102,0.417969 25,25 0 0 1 0.03516,0.419922 25,25 0 0 1 0.02734,0.417968 25,25 0 0 1 0.02148,0.419922 25,25 0 0 1 0.01172,0.421875 A 25,25 0 0 1 47,21.832031 25,25 0 0 1 47,22 a 25,25 0 0 1 -0.0039,0.419922 25,25 0 0 1 -0.0098,0.419922 25,25 0 0 1 -0.01758,0.421875 25,25 0 0 1 -0.02539,0.417969 25,25 0 0 1 -0.03125,0.419921 25,25 0 0 1 -0.03906,0.417969 25,25 0 0 1 -0.04688,0.417969 25,25 0 0 1 -0.05273,0.417969 25,25 0 0 1 -0.05859,0.416015 25,25 0 0 1 -0.06836,0.416016 25,25 0 0 1 -0.07227,0.412109 25,25 0 0 1 -0.08203,0.414063 25,25 0 0 1 -0.08789,0.410156 25,25 0 0 1 -0.09375,0.410156 25,25 0 0 1 -0.101563,0.408203 25,25 0 0 1 -0.109375,0.40625 25,25 0 0 1 -0.115234,0.404297 25,25 0 0 1 -0.121094,0.402344 25,25 0 0 1 -0.128906,0.400391 25,25 0 0 1 -0.134766,0.398437 25,25 0 0 1 -0.142578,0.394531 25,25 0 0 1 -0.148437,0.394532 25,25 0 0 1 -0.15625,0.390625 25,25 0 0 1 -0.16211,0.386718 25,25 0 0 1 -0.167968,0.386719 25,25 0 0 1 -0.173828,0.38086 25,25 0 0 1 -0.181641,0.380859 25,25 0 0 1 -0.1875,0.375 25,25 0 0 1 -0.193359,0.373047 25,25 0 0 1 -0.201172,0.371094 25,25 0 0 1 -0.207032,0.365234 25,25 0 0 1 -0.210937,0.363281 25,25 0 0 1 -0.21875,0.359375 25,25 0 0 1 -0.224609,0.355469 25,25 0 0 1 -0.230469,0.351562 25,25 0 0 1 -0.236328,0.347657 25,25 0 0 1 -0.242188,0.34375 25,25 0 0 1 -0.248047,0.339843 25,25 0 0 1 -0.253906,0.333985 25,25 0 0 1 -0.259766,0.332031 25,25 0 0 1 -0.263672,0.326172 25,25 0 0 1 -0.271484,0.322265 25,25 0 0 1 -0.27539,0.31836 25,25 0 0 1 -0.28125,0.3125 25,25 0 0 1 -0.285157,0.308594 25,25 0 0 1 -0.291015,0.302734 25,25 0 0 1 -0.296875,0.298828 25,25 0 0 1 -0.300782,0.292969 25,25 0 0 1 -0.30664,0.287109 25,25 0 0 1 -0.310547,0.283203 25,25 0 0 1 -0.316406,0.277344 25,25 0 0 1 -0.320313,0.273438 25,25 0 0 1 -0.324219,0.265625 25,25 0 0 1 -0.330078,0.261718 25,25 0 0 1 -0.332031,0.25586 25,25 0 0 1 -0.337891,0.25 25,25 0 0 1 -0.34375,0.246094 25,25 0 0 1 -0.345703,0.238281 25,25 0 0 1 -0.349609,0.232422 25,25 0 0 1 -0.353516,0.226562 25,25 0 0 1 -0.357422,0.220703 25,25 0 0 1 -0.361328,0.214844 25,25 0 0 1 -0.365234,0.208984 25,25 0 0 1 -0.369141,0.203125 25,25 0 0 1 -0.371093,0.197266 25,25 0 0 1 -0.375,0.189453 25,25 0 0 1 -0.378907,0.183594 25,25 0 0 1 -0.380859,0.177734 25,25 0 0 1 -0.384766,0.169922 25,25 0 0 1 -0.386718,0.166016 25,25 0 0 1 -0.388672,0.15625 25,25 0 0 1 -0.392578,0.152344 25,25 0 0 1 -0.394532,0.144531 25,25 0 0 1 -0.396484,0.138672 25,25 0 0 1 -0.400391,0.130859 25,25 0 0 1 -0.402343,0.125 25,25 0 0 1 -0.402344,0.117188 25,25 0 0 1 -0.40625,0.111328 25,25 0 0 1 -0.40625,0.103515 25,25 0 0 1 -0.410156,0.09766 25,25 0 0 1 -0.410157,0.0918 25,25 0 0 1 -0.412109,0.08203 25,25 0 0 1 -0.414063,0.07813 25,25 0 0 1 -0.414062,0.06836 25,25 0 0 1 -0.416016,0.0625 25,25 0 0 1 -0.416015,0.05664 25,25 0 0 1 -0.417969,0.04883 25,25 0 0 1 -0.417969,0.04102 25,25 0 0 1 -0.419922,0.03516 25,25 0 0 1 -0.417968,0.02734 25,25 0 0 1 -0.419922,0.02148 25,25 0 0 1 -0.421875,0.01172 A 25,25 0 0 1 22.167969,47 25,25 0 0 1 22,47 a 25,25 0 0 1 -0.419922,-0.0039 25,25 0 0 1 -0.419922,-0.0098 25,25 0 0 1 -0.421875,-0.01758 25,25 0 0 1 -0.417969,-0.02539 25,25 0 0 1 -0.419921,-0.03125 25,25 0 0 1 -0.417969,-0.03906 25,25 0 0 1 -0.417969,-0.04688 25,25 0 0 1 -0.417969,-0.05273 25,25 0 0 1 -0.416015,-0.05859 25,25 0 0 1 -0.416016,-0.06836 25,25 0 0 1 -0.412109,-0.07227 25,25 0 0 1 -0.414063,-0.08203 25,25 0 0 1 -0.410156,-0.08789 25,25 0 0 1 -0.410156,-0.09375 25,25 0 0 1 -0.408203,-0.101563 25,25 0 0 1 -0.40625,-0.109375 25,25 0 0 1 -0.404297,-0.115234 25,25 0 0 1 -0.402344,-0.121094 25,25 0 0 1 -0.400391,-0.128906 25,25 0 0 1 -0.398437,-0.134766 25,25 0 0 1 -0.394531,-0.142578 25,25 0 0 1 -0.394532,-0.148437 25,25 0 0 1 -0.390625,-0.15625 25,25 0 0 1 -0.386718,-0.16211 25,25 0 0 1 -0.386719,-0.167968 25,25 0 0 1 -0.38086,-0.173828 25,25 0 0 1 -0.380859,-0.181641 25,25 0 0 1 -0.375,-0.1875 A 25,25 0 0 1 10.285156,44.085938 25,25 0 0 1 9.9140625,43.884766 25,25 0 0 1 9.5488281,43.677734 25,25 0 0 1 9.1855469,43.466797 25,25 0 0 1 8.8261719,43.248047 25,25 0 0 1 8.4707031,43.023438 25,25 0 0 1 8.1191406,42.792969 25,25 0 0 1 7.7714844,42.556641 25,25 0 0 1 7.4277344,42.314453 25,25 0 0 1 7.0878906,42.066406 25,25 0 0 1 6.7539062,41.8125 25,25 0 0 1 6.421875,41.552734 25,25 0 0 1 6.0957031,41.289062 25,25 0 0 1 5.7734375,41.017578 25,25 0 0 1 5.4550781,40.742188 25,25 0 0 1 5.1425781,40.460938 25,25 0 0 1 4.8339844,40.175781 25,25 0 0 1 4.53125,39.884766 25,25 0 0 1 4.2324219,39.587891 25,25 0 0 1 3.9394531,39.287109 25,25 0 0 1 3.6523438,38.980469 25,25 0 0 1 3.3691406,38.669922 25,25 0 0 1 3.0917969,38.353516 25,25 0 0 1 2.8183594,38.033203 25,25 0 0 1 2.5527344,37.708984 25,25 0 0 1 2.2910156,37.378906 25,25 0 0 1 2.0351562,37.046875 25,25 0 0 1 1.7851562,36.708984 25,25 0 0 1 1.5390625,36.365234 25,25 0 0 1 1.3007812,36.019531 25,25 0 0 1 1.0683594,35.669922 25,25 0 0 1 0.84179688,35.316406 25,25 0 0 1 0.62109375,34.958984 25,25 0 0 1 0.40625,34.597656 25,25 0 0 1 0.19726562,34.232422 a 25,25 0 0 1 -0.203125,-0.369141 25,25 0 0 1 -0.19726562,-0.371093 25,25 0 0 1 -0.18945312,-0.375 25,25 0 0 1 -0.18359376,-0.378907 25,25 0 0 1 -0.17773437,-0.380859 25,25 0 0 1 -0.16992187,-0.384766 25,25 0 0 1 -0.16601568,-0.386718 25,25 0 0 1 -0.15625,-0.388672 25,25 0 0 1 -0.1523437,-0.392578 25,25 0 0 1 -0.1445313,-0.394532 25,25 0 0 1 -0.1386718,-0.396484 25,25 0 0 1 -0.1308594,-0.400391 25,25 0 0 1 -0.125,-0.402343 25,25 0 0 1 -0.1171875,-0.402344 25,25 0 0 1 -0.1113281,-0.40625 25,25 0 0 1 -0.1035156,-0.40625 25,25 0 0 1 -0.097656,-0.410156 25,25 0 0 1 -0.091797,-0.410157 25,25 0 0 1 -0.082031,-0.412109 25,25 0 0 1 -0.078125,-0.414063 25,25 0 0 1 -0.068359,-0.414062 25,25 0 0 1 -0.0625,-0.416016 25,25 0 0 1 -0.056641,-0.416015 25,25 0 0 1 -0.048828,-0.417969 25,25 0 0 1 -0.041016,-0.417969 25,25 0 0 1 -0.035156,-0.419922 25,25 0 0 1 -0.027344,-0.417968 25,25 0 0 1 -0.021484,-0.419922 25,25 0 0 1 -0.011719,-0.421875 A 25,25 0 0 1 -3,22.167969 25,25 0 0 1 -3,22 a 25,25 0 0 1 0.00391,-0.419922 25,25 0 0 1 0.00977,-0.419922 25,25 0 0 1 0.017578,-0.421875 25,25 0 0 1 0.025391,-0.417969 25,25 0 0 1 0.03125,-0.419921 25,25 0 0 1 0.039062,-0.417969 25,25 0 0 1 0.046875,-0.417969 25,25 0 0 1 0.052734,-0.417969 25,25 0 0 1 0.058594,-0.416015 25,25 0 0 1 0.068359,-0.416016 25,25 0 0 1 0.072266,-0.412109 25,25 0 0 1 0.082031,-0.414063 25,25 0 0 1 0.087891,-0.410156 25,25 0 0 1 0.09375,-0.410156 25,25 0 0 1 0.1015625,-0.408203 25,25 0 0 1 0.109375,-0.40625 25,25 0 0 1 0.1152344,-0.404297 25,25 0 0 1 0.1210938,-0.402344 25,25 0 0 1 0.1289062,-0.400391 25,25 0 0 1 0.1347656,-0.398437 25,25 0 0 1 0.1425782,-0.394531 25,25 0 0 1 0.1484374,-0.394532 25,25 0 0 1 0.15625,-0.390625 25,25 0 0 1 0.16210942,-0.386718 25,25 0 0 1 0.16796876,-0.386719 25,25 0 0 1 0.17382812,-0.38086 25,25 0 0 1 0.18164062,-0.380859 25,25 0 0 1 0.1875,-0.375 25,25 0 0 1 0.19335938,-0.373047 25,25 0 0 1 0.20117188,-0.3710935 25,25 0 0 1 0.20703124,-0.3652344 25,25 0 0 1 0.2109375,-0.3632812 25,25 0 0 1 0.21875,-0.359375 A 25,25 0 0 1 0.9765625,8.4707031 25,25 0 0 1 1.2070312,8.1191406 25,25 0 0 1 1.4433594,7.7714844 25,25 0 0 1 1.6855469,7.4277344 25,25 0 0 1 1.9335938,7.0878906 25,25 0 0 1 2.1875,6.7539062 25,25 0 0 1 2.4472656,6.421875 25,25 0 0 1 2.7109375,6.0957031 25,25 0 0 1 2.9824219,5.7734375 25,25 0 0 1 3.2578125,5.4550781 25,25 0 0 1 3.5390625,5.1425781 25,25 0 0 1 3.8242188,4.8339844 25,25 0 0 1 4.1152344,4.53125 25,25 0 0 1 4.4121094,4.2324219 25,25 0 0 1 4.7128906,3.9394531 25,25 0 0 1 5.0195312,3.6523438 25,25 0 0 1 5.3300781,3.3691406 25,25 0 0 1 5.6464844,3.0917969 25,25 0 0 1 5.9667969,2.8183594 25,25 0 0 1 6.2910156,2.5527344 25,25 0 0 1 6.6210938,2.2910156 25,25 0 0 1 6.953125,2.0351562 a 25,25 0 0 1 0.3378906,-0.25 25,25 0 0 1 0.34375,-0.2460937 A 25,25 0 0 1 7.9804688,1.3007812 25,25 0 0 1 8.3300781,1.0683594 25,25 0 0 1 8.6835938,0.84179688 25,25 0 0 1 9.0410156,0.62109375 25,25 0 0 1 9.4023438,0.40625 25,25 0 0 1 9.7675781,0.19726562 a 25,25 0 0 1 0.3691409,-0.203125 25,25 0 0 1 0.371093,-0.19726562 25,25 0 0 1 0.375,-0.18945312 25,25 0 0 1 0.378907,-0.18359376 25,25 0 0 1 0.380859,-0.17773437 25,25 0 0 1 0.384766,-0.16992187 25,25 0 0 1 0.386718,-0.16601568 25,25 0 0 1 0.388672,-0.15625 25,25 0 0 1 0.392578,-0.1523437 25,25 0 0 1 0.394532,-0.1445313 25,25 0 0 1 0.396484,-0.1386718 25,25 0 0 1 0.400391,-0.1308594 25,25 0 0 1 0.402343,-0.125 25,25 0 0 1 0.402344,-0.1171875 25,25 0 0 1 0.40625,-0.1113281 25,25 0 0 1 0.40625,-0.1035156 25,25 0 0 1 0.410156,-0.097656 25,25 0 0 1 0.410157,-0.091797 25,25 0 0 1 0.412109,-0.082031 25,25 0 0 1 0.414063,-0.078125 25,25 0 0 1 0.414062,-0.068359 25,25 0 0 1 0.416016,-0.0625 25,25 0 0 1 0.416015,-0.056641 25,25 0 0 1 0.417969,-0.048828 25,25 0 0 1 0.417969,-0.041016 25,25 0 0 1 0.419922,-0.035156 25,25 0 0 1 0.417968,-0.027344 25,25 0 0 1 0.419922,-0.021484 25,25 0 0 1 0.421875,-0.011719 A 25,25 0 0 1 21.832031,-3 Z" />
          </g>
        </g>
      </g>
    </g>
  </g>
</svg>
