<?xml version="1.0" encoding="UTF-8" standalone="no"?>
<svg
   xmlns:dc="http://purl.org/dc/elements/1.1/"
   xmlns:cc="http://creativecommons.org/ns#"
   xmlns:rdf="http://www.w3.org/1999/02/22-rdf-syntax-ns#"
   xmlns:svg="http://www.w3.org/2000/svg"
   xmlns="http://www.w3.org/2000/svg"
   xmlns:xlink="http://www.w3.org/1999/xlink"
   xmlns:sodipodi="http://sodipodi.sourceforge.net/DTD/sodipodi-0.dtd"
   xmlns:inkscape="http://www.inkscape.org/namespaces/inkscape"
   inkscape:version="1.0 (4035a4fb49, 2020-05-01)"
   sodipodi:docname="insta.svg"
   id="svg859"
   version="1.1"
   height="44.000004"
   width="44">
  <metadata
     id="metadata863">
    <rdf:RDF>
      <cc:Work
         rdf:about="">
        <dc:format>image/svg+xml</dc:format>
        <dc:type
           rdf:resource="http://purl.org/dc/dcmitype/StillImage" />
        <dc:title></dc:title>
      </cc:Work>
    </rdf:RDF>
  </metadata>
  <sodipodi:namedview
     fit-margin-bottom="0"
     fit-margin-right="0"
     fit-margin-left="0"
     fit-margin-top="0"
     inkscape:current-layer="svg859"
     inkscape:window-maximized="1"
     inkscape:window-y="-8"
     inkscape:window-x="-8"
     inkscape:cy="18.04558"
     inkscape:cx="6.4386143"
     inkscape:zoom="7.1782052"
     showgrid="false"
     id="namedview861"
     inkscape:window-height="837"
     inkscape:window-width="1600"
     inkscape:pageshadow="2"
     inkscape:pageopacity="0"
     guidetolerance="10"
     gridtolerance="10"
     objecttolerance="10"
     borderopacity="1"
     bordercolor="#666666"
     pagecolor="#ffffff" />
  <defs
     id="defs851">
    <linearGradient
       id="b">
      <stop
         id="stop833"
         stop-color="#3771c8"
         offset="0" />
      <stop
         id="stop835"
         offset=".128"
         stop-color="#3771c8" />
      <stop
         id="stop837"
         stop-opacity="0"
         stop-color="#60f"
         offset="1" />
    </linearGradient>
    <linearGradient
       id="a">
      <stop
         id="stop840"
         stop-color="#fd5"
         offset="0" />
      <stop
         id="stop842"
         stop-color="#fd5"
         offset=".1" />
      <stop
         id="stop844"
         stop-color="#ff543e"
         offset=".5" />
      <stop
         id="stop846"
         stop-color="#c837ab"
         offset="1" />
    </linearGradient>
    <radialGradient
       fy="578.08801"
       fx="158.429"
       gradientTransform="matrix(0,-1.98198,1.8439,0,-1031.402,454.004)"
       gradientUnits="userSpaceOnUse"
       xlink:href="#a"
       r="65"
       cy="578.08801"
       cx="158.429"
       id="c" />
    <radialGradient
       fy="473.45499"
       fx="147.694"
       gradientTransform="matrix(0.05886093,0.29405319,-1.2120736,0.24275839,407.4981,-173.4118)"
       gradientUnits="userSpaceOnUse"
       xlink:href="#b"
       r="65"
       cy="473.45499"
       cx="147.694"
       id="d" />
    <radialGradient
       r="65"
       fy="578.08801"
       fx="158.429"
       cy="578.08801"
       cx="158.429"
       gradientTransform="matrix(0,-0.67088077,0.62397191,0,-349.02296,153.67628)"
       gradientUnits="userSpaceOnUse"
       id="radialGradient2154"
       xlink:href="#a"
       inkscape:collect="always" />
  </defs>
  <path
     d="M 21.99609,0 A 22,22 0 0 0 0,22 22,22 0 0 0 0.002,22.244141 c 0,0.0065 0,0.0072 0,0.01367 A 22,22 0 0 0 21.96094,44 c 0.15284,0 0.16757,1.1e-5 0.32031,0 5.39995,-3.74e-4 10.80754,-0.0069 11.32422,-0.0332 -0.51498,0.02622 -5.90577,0.03083 -11.28711,0.03125 A 22,22 0 0 0 44,22.019534 c 0,-0.01609 0,-0.01712 0,-0.0332 A 22,22 0 0 0 22.00781,0 c -0.005,0 -0.005,0 -0.01,0 0,0 -0.002,0 -0.002,0 z m 0,5.751953 h 0.004 0.002 c 4.40455,2.6e-5 4.95997,0.020793 6.69141,0.09961 1.72921,0.079207 2.90981,0.352118 3.94531,0.753906 1.06933,0.41465 1.97342,0.969277 2.87695,1.8730468 0.90352,0.9030919 1.45877,1.8102932 1.875,2.8789062 0.39931,1.033072 0.67271,2.213674 0.75391,3.943359 0.0778,1.733069 0.0977,2.286661 0.0977,6.699219 0,4.412558 -0.0199,4.966149 -0.0977,6.699219 -0.0812,1.729008 -0.3546,2.909949 -0.75391,3.943359 -0.41623,1.068275 -0.97148,1.973861 -1.875,2.876953 -0.90251,0.903769 -1.80702,1.460011 -2.875,1.875 -1.03347,0.401788 -2.21609,0.67665 -3.94531,0.75586 -1.73259,0.07887 -2.28362,0.09766 -6.69531,0.09766 -4.41102,0 -4.96467,-0.01879 -6.69727,-0.09766 C 13.574,38.071181 12.39298,37.796319 11.35951,37.394531 10.29186,36.979542 9.38506,36.4233 8.48256,35.519531 7.57937,34.616439 7.02472,33.709238 6.60951,32.640625 6.20817,31.607553 5.93511,30.426951 5.85561,28.697266 5.77711,26.964196 5.75791,26.412558 5.75791,22 c 0,-4.412558 0.0202,-4.966149 0.0977,-6.699219 0.0778,-1.729008 0.3512,-2.909948 0.7539,-3.943359 0.41623,-1.068275 0.97148,-1.9758142 1.875,-2.8789062 0.90285,-0.9034318 1.80864,-1.4580578 2.87696,-1.8730468 1.03279,-0.401788 2.21415,-0.674696 3.94336,-0.753906 1.73143,-0.078817 2.2882,-0.099584 6.6914,-0.09961 z m -1.45117,2.9238284 c -3.0273,0.00338 -3.60899,0.024097 -5.10742,0.091797 -1.5837,0.072775 -2.44306,0.3371439 -3.01563,0.5605469 -0.75801,0.295164 -1.29867,0.6481329 -1.86718,1.2167967 -0.56851,0.568663 -0.9224,1.10897 -1.2168,1.867187 -0.22233,0.572725 -0.48619,1.433445 -0.55859,3.017579 -0.0778,1.71276 -0.0938,2.223733 -0.0938,6.5625 0,4.338767 0.016,4.853646 0.0938,6.566406 0.0721,1.584134 0.33626,2.443576 0.55859,3.015625 0.29508,0.758556 0.64829,1.298524 1.2168,1.867187 0.56851,0.568664 1.10917,0.920357 1.86718,1.214844 0.57291,0.222388 1.43193,0.487437 3.01563,0.560547 1.71229,0.07786 2.2272,0.0957 6.56445,0.0957 4.3369,0 4.85021,-0.01785 6.5625,-0.0957 1.5837,-0.07244 2.44569,-0.33519 3.01758,-0.558594 0.75835,-0.294486 1.29672,-0.648134 1.86523,-1.216797 0.56851,-0.568325 0.9224,-1.107016 1.2168,-1.865234 0.22233,-0.572049 0.48619,-1.431491 0.5586,-3.015625 0.0779,-1.71276 0.0937,-2.228394 0.0937,-6.564453 0,-4.33606 -0.016,-4.849739 -0.0937,-6.5625 -0.0721,-1.584134 -0.33627,-2.443577 -0.5586,-3.015625 -0.29508,-0.758218 -0.64829,-1.300478 -1.2168,-1.869141 C 32.87909,9.9801644 32.34005,9.6284707 31.58203,9.3339847 31.00946,9.1115967 30.14815,8.8458778 28.56445,8.7734378 c -1.71263,-0.07785 -2.2256,-0.091797 -6.5625,-0.091797 -0.54212,0 -1.02455,-6.77e-4 -1.45703,0 z m 10.12695,2.7011716 c 1.0761,0 1.94922,0.874773 1.94922,1.951172 0,1.076399 -0.87312,1.949219 -1.94922,1.949219 -1.07611,0 -1.94921,-0.87282 -1.94921,-1.949219 0,-1.076738 0.8731,-1.949219 1.94921,-1.949219 z m -8.66992,2.279297 c 4.60661,0 8.33985,3.735884 8.33985,8.34375 0,4.607867 -3.73324,8.341797 -8.33985,8.341797 -4.60661,0 -8.34179,-3.73393 -8.34179,-8.341797 0,-4.607867 3.73518,-8.34375 8.34179,-8.34375 z m 0,2.927734 c -2.99043,0 -5.41406,2.424779 -5.41406,5.416016 0,2.9909 2.42363,5.416016 5.41406,5.416016 2.99008,0 5.41406,-2.425116 5.41406,-5.416016 0,-2.991237 -2.42398,-5.416016 -5.41406,-5.416016 z"
     style="fill:url(#radialGradient2154);stroke-width:0.338444"
     id="path853" />
</svg>
