<?xml version="1.0" encoding="UTF-8" standalone="no"?>
<svg
   xmlns:dc="http://purl.org/dc/elements/1.1/"
   xmlns:cc="http://creativecommons.org/ns#"
   xmlns:rdf="http://www.w3.org/1999/02/22-rdf-syntax-ns#"
   xmlns:svg="http://www.w3.org/2000/svg"
   xmlns="http://www.w3.org/2000/svg"
   xmlns:xlink="http://www.w3.org/1999/xlink"
   xmlns:sodipodi="http://sodipodi.sourceforge.net/DTD/sodipodi-0.dtd"
   xmlns:inkscape="http://www.inkscape.org/namespaces/inkscape"
   inkscape:version="1.0 (4035a4fb49, 2020-05-01)"
   sodipodi:docname="insta_logo.svg"
   id="svg68"
   version="1.1"
   height="130"
   width="130">
  <metadata
     id="metadata72">
    <rdf:RDF>
      <cc:Work
         rdf:about="">
        <dc:format>image/svg+xml</dc:format>
        <dc:type
           rdf:resource="http://purl.org/dc/dcmitype/StillImage" />
        <dc:title></dc:title>
      </cc:Work>
    </rdf:RDF>
  </metadata>
  <sodipodi:namedview
     inkscape:current-layer="svg68"
     inkscape:window-maximized="0"
     inkscape:window-y="0"
     inkscape:window-x="0"
     inkscape:cy="70.2228"
     inkscape:cx="59.37144"
     inkscape:zoom="3.5891026"
     fit-margin-bottom="0"
     fit-margin-right="0"
     fit-margin-left="0"
     fit-margin-top="0"
     showgrid="false"
     id="namedview70"
     inkscape:window-height="828"
     inkscape:window-width="1412"
     inkscape:pageshadow="2"
     inkscape:pageopacity="0"
     guidetolerance="10"
     gridtolerance="10"
     objecttolerance="10"
     borderopacity="1"
     bordercolor="#666666"
     pagecolor="#ffffff" />
  <defs
     id="defs60">
    <linearGradient
       id="b">
      <stop
         id="stop42"
         stop-color="#3771c8"
         offset="0" />
      <stop
         id="stop44"
         offset=".128"
         stop-color="#3771c8" />
      <stop
         id="stop46"
         stop-opacity="0"
         stop-color="#60f"
         offset="1" />
    </linearGradient>
    <linearGradient
       id="a">
      <stop
         id="stop49"
         stop-color="#fd5"
         offset="0" />
      <stop
         id="stop51"
         stop-color="#fd5"
         offset=".1" />
      <stop
         id="stop53"
         stop-color="#ff543e"
         offset=".5" />
      <stop
         id="stop55"
         stop-color="#c837ab"
         offset="1" />
    </linearGradient>
    <radialGradient
       fy="578.08801"
       fx="158.429"
       gradientTransform="matrix(0,-1.98198,1.8439,0,-1031.3986,454.004)"
       gradientUnits="userSpaceOnUse"
       xlink:href="#a"
       r="65"
       cy="578.08801"
       cx="158.429"
       id="c" />
    <radialGradient
       fy="473.45499"
       fx="147.694"
       gradientTransform="matrix(0.1739073,0.86879349,-3.5811266,0.71724067,1648.0415,-458.53179)"
       gradientUnits="userSpaceOnUse"
       xlink:href="#b"
       r="65"
       cy="473.45499"
       cx="147.694"
       id="d" />
  </defs>
  <path
     style="fill:url(#c)"
     id="path62"
     d="m 65.033444,0 c -27.142,0 -35.08,0.028 -36.623,0.156 -5.57,0.463 -9.036,1.34 -12.812,3.22 -2.91,1.445 -5.205,3.12 -7.4699996,5.468 -4.125,4.282 -6.625,9.55 -7.53000004,15.812 -0.44,3.04 -0.568,3.66 -0.594,19.188 -0.01,5.176 0,11.988 0,21.125 0,27.12 0.03,35.05 0.16,36.59 0.45,5.42 1.30000004,8.83 3.10000004,12.56 3.44,7.14 10.0099996,12.5 17.7499996,14.5 2.68,0.69 5.64,1.07 9.44,1.25 1.61,0.07 18.02,0.12 34.44,0.12 16.42,0 32.84,-0.02 34.41,-0.1 4.399996,-0.207 6.954996,-0.55 9.779996,-1.28 7.79,-2.01 14.24,-7.29 17.75,-14.53 1.765,-3.64 2.66,-7.18 3.065,-12.317 0.088,-1.12 0.125,-18.977 0.125,-36.81 0,-17.836 -0.04,-35.66 -0.128,-36.78 -0.41,-5.22 -1.305,-8.73 -3.127,-12.44 -1.495,-3.037 -3.155,-5.305 -5.565,-7.624 C 116.90344,4 111.64344,1.5 105.37544,0.596 102.33844,0.157 101.73344,0.027 86.193444,0 Z"
     fill="url(#c)" />
  <path
     style="fill:url(#d);stroke-width:0.999948"
     id="path64"
     d="M 65.021218,0 C 37.88432,0 29.947813,0.0280024 28.405103,0.1560132 22.83615,0.6190524 19.370802,1.4961266 15.595512,3.3762857 12.686059,4.821408 10.39149,6.4965497 8.1269163,8.8447484 4.0026918,13.127111 1.5031618,18.395557 0.59833186,24.658086 c -0.4399173,3.040258 -0.5678932,3.66031 -0.5938883,19.189624 -0.009998,5.176438 0,11.989015 0,21.126788 0,27.122295 0.029994,35.052962 0.1599699,36.593092 0.4499154,5.42046 1.29975564,8.83075 3.09941724,12.56107 3.4393533,7.1406 10.0081173,12.50105 17.7466623,14.50122 2.679496,0.69006 5.63894,1.07009 9.438226,1.25011 C 32.058416,129.95 48.465331,130 64.882244,130 c 16.416913,0 32.833826,-0.02 34.40353,-0.10001 4.399166,-0.20702 6.953686,-0.55005 9.778156,-1.28011 7.78854,-2.01017 14.23733,-7.29061 17.74667,-14.53123 1.76466,-3.6403 2.6595,-7.1806 3.06442,-12.31804 C 129.96302,100.65052 130,82.792005 130,64.957496 130,47.119987 129.96,29.294479 129.87202,28.174384 129.4621,22.953942 128.56726,19.443645 126.74561,15.733331 125.25089,12.696074 123.5912,10.427882 121.18165,8.1086861 116.88146,4.0003385 111.62245,1.5001269 105.35563,0.5960504 102.3192,0.1570133 101.71431,0.0270023 86.17724,0 Z"
     fill="url(#d)" />
  <path
     id="path66"
     d="m 65.003444,17 c -13.036,0 -14.672,0.057 -19.792,0.29 -5.11,0.234 -8.598,1.043 -11.65,2.23 -3.157,1.226 -5.835,2.866 -8.503,5.535 -2.67,2.668 -4.31,5.346 -5.54,8.502 -1.19,3.053 -2,6.542 -2.23,11.65 -0.229,5.12 -0.289,6.757 -0.289,19.793 0,13.036 0.058,14.667 0.29,19.787 0.235,5.11 1.044,8.598 2.23,11.65 1.227,3.157 2.867,5.835 5.536,8.503 2.667,2.67 5.345,4.314 8.5,5.54 3.054,1.187 6.543,1.996 11.652,2.23 5.12,0.233 6.755,0.29 19.79,0.29 13.037,0 14.668,-0.057 19.788,-0.29 5.11,-0.234 8.602,-1.043 11.656,-2.23 3.156,-1.226 5.829996,-2.87 8.496996,-5.54 2.67,-2.668 4.31,-5.346 5.54,-8.502 1.18,-3.053 1.99,-6.542 2.23,-11.65 0.23,-5.12 0.29,-6.752 0.29,-19.788 0,-13.036 -0.06,-14.672 -0.29,-19.792 -0.24,-5.11 -1.05,-8.598 -2.23,-11.65 -1.23,-3.157 -2.87,-5.835 -5.54,-8.503 -2.67,-2.67 -5.339996,-4.31 -8.499996,-5.535 -3.06,-1.187 -6.55,-1.996 -11.66,-2.23 -5.12,-0.233 -6.75,-0.29 -19.79,-0.29 z m -4.306,8.65 c 1.278,-0.002 2.704,0 4.306,0 12.816,0 14.335,0.046 19.396,0.276 4.68,0.214 7.22,0.996 8.912,1.653 2.24,0.87 3.837,1.91 5.516,3.59 1.679996,1.68 2.719996,3.28 3.591996,5.52 0.657,1.69 1.44,4.23 1.653,8.91 0.23,5.06 0.28,6.58 0.28,19.39 0,12.81 -0.05,14.33 -0.28,19.39 -0.214,4.68 -0.996,7.22 -1.653,8.91 -0.87,2.24 -1.912,3.835 -3.591996,5.514 -1.68,1.68 -3.275,2.72 -5.516,3.59 -1.69,0.66 -4.232,1.44 -8.912,1.654 -5.06,0.23 -6.58,0.28 -19.396,0.28 -12.817,0 -14.336,-0.05 -19.396,-0.28 -4.68,-0.216 -7.22,-0.998 -8.913,-1.655 -2.24,-0.87 -3.84,-1.91 -5.52,-3.59 -1.68,-1.68 -2.72,-3.276 -3.592,-5.517 -0.657,-1.69 -1.44,-4.23 -1.653,-8.91 -0.23,-5.06 -0.276,-6.58 -0.276,-19.398 0,-12.818 0.046,-14.33 0.276,-19.39 0.214,-4.68 0.996,-7.22 1.653,-8.912 0.87,-2.24 1.912,-3.84 3.592,-5.52 1.68,-1.68 3.28,-2.72 5.52,-3.592 1.692,-0.66 4.233,-1.44 8.913,-1.655 4.428,-0.2 6.144,-0.26 15.09,-0.27 z m 29.928,7.97 c -3.18,0 -5.76,2.577 -5.76,5.758 0,3.18 2.58,5.76 5.76,5.76 3.18,0 5.76,-2.58 5.76,-5.76 0,-3.18 -2.58,-5.76 -5.76,-5.76 z m -25.622,6.73 c -13.613,0 -24.65,11.037 -24.65,24.65 0,13.613 11.037,24.645 24.65,24.645 13.613,0 24.646,-11.032 24.646,-24.645 0,-13.613 -11.034,-24.65 -24.647,-24.65 z m 0,8.65 c 8.836,0 16,7.163 16,16 0,8.836 -7.164,16 -16,16 -8.837,0 -16,-7.164 -16,-16 0,-8.837 7.163,-16 16,-16 z"
     fill="#ffffff" />
</svg>
