<?xml version="1.0" encoding="UTF-8" standalone="no"?>
<svg
   xmlns:dc="http://purl.org/dc/elements/1.1/"
   xmlns:cc="http://creativecommons.org/ns#"
   xmlns:rdf="http://www.w3.org/1999/02/22-rdf-syntax-ns#"
   xmlns:svg="http://www.w3.org/2000/svg"
   xmlns="http://www.w3.org/2000/svg"
   xmlns:sodipodi="http://sodipodi.sourceforge.net/DTD/sodipodi-0.dtd"
   xmlns:inkscape="http://www.inkscape.org/namespaces/inkscape"
   inkscape:version="1.0 (4035a4fb49, 2020-05-01)"
   sodipodi:docname="multiple images.svg"
   id="svg849"
   version="1.1"
   viewBox="0 0 45.964 45.964">
  <metadata
     id="metadata855">
    <rdf:RDF>
      <cc:Work
         rdf:about="">
        <dc:format>image/svg+xml</dc:format>
        <dc:type
           rdf:resource="http://purl.org/dc/dcmitype/StillImage" />
      </cc:Work>
    </rdf:RDF>
  </metadata>
  <defs
     id="defs853" />
  <sodipodi:namedview
     inkscape:current-layer="svg849"
     inkscape:window-maximized="1"
     inkscape:window-y="-8"
     inkscape:window-x="-8"
     inkscape:cy="20.445447"
     inkscape:cx="8.9922376"
     inkscape:zoom="7.2883126"
     showgrid="false"
     id="namedview851"
     inkscape:window-height="837"
     inkscape:window-width="1600"
     inkscape:pageshadow="2"
     inkscape:pageopacity="0"
     guidetolerance="10"
     gridtolerance="10"
     objecttolerance="10"
     borderopacity="1"
     bordercolor="#666666"
     pagecolor="#ffffff" />
  <path
     style="fill:#ff0000"
     id="path845"
     d="M32.399,40.565H11.113v1.297c0,2.24,1.838,4.051,4.076,4.051h26.733c2.239,0,4.042-1.811,4.042-4.051V15.13c0-2.237-1.803-4.068-4.042-4.068h-1.415v21.395C40.507,36.904,36.845,40.566,32.399,40.565z" />
  <path
     style="fill:#ff0000"
     id="path847"
     d="M0,4.102l0,28.355c0,2.241,1.814,4.067,4.051,4.067h28.365c2.237,0,4.066-1.826,4.066-4.067l0-28.356c0-2.238-1.828-4.051-4.066-4.051H4.051C1.814,0.05,0,1.862,0,4.102z" />
</svg>
